<svg width="87" height="50" viewBox="0 0 87 50" fill="none" xmlns="http://www.w3.org/2000/svg">
<g clip-path="url(#clip0_1466_3592)">
<path d="M5.37136 49.3027C3.79539 49.3027 2.67789 48.9016 2.01885 48.0993C1.33116 47.3256 0.987305 46.3514 0.987305 45.1766C0.987305 44.2883 1.14491 43.3427 1.4601 42.3398C1.77529 41.3369 2.17645 40.3627 2.66356 39.4171C3.35126 38.1277 4.2252 36.9386 5.2854 35.8497C6.37425 34.7609 7.49175 33.801 8.6379 32.97C9.78406 32.1104 10.7726 31.4227 11.6035 30.9069C11.6035 30.5344 11.5892 29.9327 11.5606 29.1017C11.5319 28.2421 11.4889 27.2822 11.4316 26.222C11.403 25.1332 11.3457 24.0873 11.2597 23.0844C11.0305 24.3452 10.7009 25.5916 10.2711 26.8237C9.87002 28.0559 9.38291 29.3166 8.80983 30.6061C8.66656 30.9212 8.43733 31.3224 8.12213 31.8095C7.80694 32.2966 7.44877 32.7264 7.04761 33.0989C6.64646 33.4428 6.21665 33.6147 5.75819 33.6147C5.41434 33.6147 5.08482 33.4714 4.76963 33.1849C4.48309 32.927 4.23953 32.4829 4.03895 31.8525C3.86703 31.1935 3.72376 30.4485 3.60914 29.6175C3.52318 28.7865 3.45155 27.9412 3.39424 27.0816C3.36558 26.222 3.35126 25.4484 3.35126 24.7607C3.35126 24.4455 3.35126 24.1733 3.35126 23.944C3.37991 23.6861 3.39424 23.4712 3.39424 23.2993C3.42289 22.6976 3.45155 21.9812 3.4802 21.1503C3.53751 20.3193 3.62347 19.4883 3.73808 18.6574C3.8527 17.7978 4.02462 17.0671 4.25386 16.4653C4.68366 15.3765 5.52895 14.8321 6.78973 14.8321C6.933 14.8321 7.06194 14.8321 7.17656 14.8321C7.31982 14.8321 7.44877 14.8464 7.56338 14.8751C7.64934 14.9037 7.72098 14.9324 7.77829 14.961C7.86425 14.961 7.90723 15.004 7.90723 15.09C7.90723 15.1473 7.8929 15.1902 7.86425 15.2189C7.57771 15.9066 7.33415 16.8092 7.13357 17.9267C6.933 19.0155 6.7754 20.1904 6.66078 21.4511C6.54617 22.7119 6.48886 23.9154 6.48886 25.0615C6.48886 25.6346 6.50319 26.1934 6.53184 26.7378C6.5605 27.2535 6.60348 27.712 6.66078 28.1132C6.74675 28.6003 6.86136 29.0444 7.00463 29.4456C7.1479 29.8467 7.33415 30.0473 7.56338 30.0473C7.73531 30.0473 7.95021 29.8754 8.2081 29.5315C8.78117 28.7292 9.25396 27.7836 9.62647 26.6948C10.0276 25.5773 10.3284 24.4311 10.529 23.2563C10.7583 22.0815 10.9015 20.9927 10.9588 19.9898C10.9875 19.3594 11.0161 18.7004 11.0448 18.0127C11.0734 17.325 11.2454 16.7089 11.5606 16.1645C11.9331 15.5054 12.3915 15.1043 12.936 14.961C13.509 14.8177 13.9961 14.7461 14.3973 14.7461H14.9131C15.3429 14.7461 15.5578 14.8321 15.5578 15.004C15.5578 15.0613 15.5005 15.1473 15.3859 15.2619C15.0993 15.5198 14.8701 16.0212 14.6982 16.7662C14.5549 17.5112 14.4546 18.3995 14.3973 19.431C14.34 20.4339 14.3113 21.4798 14.3113 22.5686C14.3113 23.8008 14.3257 24.9899 14.3543 26.136C14.383 27.2535 14.3973 28.1275 14.3973 28.7579V29.2307C15.2283 28.7436 15.9446 28.3567 16.5463 28.0702C17.1767 27.755 17.6495 27.5974 17.9647 27.5974C18.022 27.5974 18.065 27.6117 18.0937 27.6404C18.1223 27.6404 18.151 27.6404 18.1796 27.6404C18.3229 27.669 18.3945 27.7836 18.3945 27.9842C18.3945 28.0702 18.3659 28.1705 18.3086 28.2851C18.2513 28.3711 18.1653 28.414 18.0507 28.414C17.7068 28.4427 17.234 28.6289 16.6323 28.9728C16.0592 29.288 15.5291 29.6605 15.042 30.0903C14.5549 30.4914 14.3113 30.8496 14.3113 31.1648V31.6806C14.3113 35.6635 13.8959 38.9587 13.0649 41.5662C12.2626 44.1737 11.1737 46.1078 9.79839 47.3686C8.45165 48.658 6.97598 49.3027 5.37136 49.3027ZM4.89857 48.4001H5.02751C6.0304 48.4001 6.87569 48.0706 7.56338 47.4116C8.27973 46.7525 8.86714 45.8786 9.3256 44.7897C9.81272 43.7296 10.1995 42.5691 10.486 41.3083C10.8012 40.0475 11.0305 38.7868 11.1737 37.526C11.3457 36.2939 11.4603 35.1764 11.5176 34.1735C11.5749 33.1992 11.6179 32.4686 11.6465 31.9814C11.1881 32.2393 10.486 32.7694 9.5405 33.5717C8.59492 34.374 7.60636 35.3626 6.57482 36.5374C5.57194 37.7409 4.72664 39.1019 4.03895 40.6206C3.66645 41.4516 3.37991 42.2539 3.17933 43.0275C3.00741 43.8298 2.92145 44.5605 2.92145 45.2196C2.92145 46.1651 3.09337 46.9245 3.43722 47.4975C3.78107 48.0993 4.26818 48.4001 4.89857 48.4001ZM18.3146 48.2712C17.3117 48.2712 16.6097 47.7841 16.2085 46.8098C15.7787 45.8356 15.5638 44.6321 15.5638 43.1995C15.5638 42.5977 15.5925 41.953 15.6498 41.2653C15.7071 40.6063 15.7931 39.9472 15.9077 39.2882C16.0509 38.3713 16.2515 37.4687 16.5094 36.5804C16.7673 35.6921 17.0395 34.8468 17.326 34.0445C17.7272 32.8984 18.1713 31.8238 18.6585 30.821C19.1742 29.7894 19.4321 28.6576 19.4321 27.4255V27.2535C19.4321 25.563 19.3605 23.987 19.2172 22.5257C19.1026 21.0643 18.945 19.8035 18.7444 18.7433C18.5725 17.6831 18.4006 16.9095 18.2286 16.4224C18.8017 16.2504 19.2888 16.0499 19.69 15.8206C20.0911 15.5914 20.4637 15.4625 20.8075 15.4338H21.0224C21.5668 15.4338 21.9107 15.7203 22.0539 16.2934C22.1972 16.8378 22.2832 17.4969 22.3118 18.2705C22.3405 18.7863 22.3548 19.4597 22.3548 20.2906C22.3548 21.1216 22.3691 22.0385 22.3978 23.0414C22.7989 21.6087 23.2717 20.219 23.8162 18.8723C24.3606 17.5255 24.9623 16.4224 25.6214 15.5627C26.2804 14.6745 26.9538 14.2303 27.6415 14.2303C28.5011 14.2303 29.1601 14.5312 29.6186 15.1329C30.1057 15.7347 30.4495 16.494 30.6501 17.4109C30.8793 18.2992 31.0083 19.2018 31.0369 20.1187C31.0943 21.007 31.1229 21.752 31.1229 22.3537C31.1229 23.8437 30.9223 25.4054 30.5212 27.0386C30.1487 28.6719 29.5326 30.0616 28.673 31.2078H28.9739C30.0054 31.2078 31.0226 30.735 32.0255 29.7894C33.057 28.8152 33.931 27.3538 34.6473 25.4054C34.762 25.1188 34.8909 24.9756 35.0342 24.9756C35.2347 24.9756 35.335 25.1332 35.335 25.4484C35.335 25.563 35.3207 25.6489 35.2921 25.7062C34.5184 27.9412 33.5585 29.5602 32.4123 30.5631C31.2948 31.566 30.1917 32.0674 29.1028 32.0674C28.9309 32.0674 28.759 32.0531 28.587 32.0244C28.4151 31.9671 28.2432 31.9241 28.0713 31.8955C27.6128 32.3826 27.0827 32.7694 26.481 33.056C25.8792 33.3425 25.2059 33.4858 24.4609 33.4858C23.6299 33.4858 22.9995 33.3139 22.5697 32.97V34.8612C22.5697 35.7494 22.5697 36.5517 22.5697 37.2681C22.5697 38.0131 22.5554 38.6148 22.5267 39.0733C22.4408 40.8785 22.2832 42.3542 22.0539 43.5003C21.7674 44.9044 21.3376 46.0505 20.7645 46.9388C20.1914 47.8271 19.4178 48.2712 18.4435 48.2712H18.3146ZM23.8162 32.3253C24.2746 32.3253 24.6901 32.182 25.0626 31.8955C25.7216 31.3797 26.2517 30.5487 26.6529 29.4026C27.0827 28.2278 27.3836 27.0673 27.5555 25.9211C27.6415 25.434 27.6988 24.8466 27.7274 24.1589C27.7847 23.4712 27.8134 22.7692 27.8134 22.0529C27.8134 20.8207 27.7131 19.7176 27.5125 18.7433C27.3119 17.7404 26.9251 17.239 26.352 17.239C26.0082 17.239 25.65 17.5399 25.2775 18.1416C24.9337 18.7433 24.5898 19.5313 24.246 20.5055C23.9021 21.4798 23.5726 22.5257 23.2574 23.6432C22.9709 24.732 22.713 25.7779 22.4838 26.7808C22.5124 27.6117 22.5267 28.4427 22.5267 29.2736C22.5267 30.1046 22.5267 30.9356 22.5267 31.7665C22.8992 32.139 23.329 32.3253 23.8162 32.3253ZM18.1427 46.8958C18.3146 46.8958 18.4865 46.7669 18.6585 46.509C18.859 46.2797 19.031 45.8929 19.1742 45.3485C19.3748 44.6035 19.5037 43.6436 19.5611 42.4688C19.647 41.294 19.69 40.0618 19.69 38.7724C19.69 37.3684 19.6613 35.993 19.604 34.6463C19.5467 33.3282 19.4894 32.225 19.4321 31.3367C19.1742 31.9385 18.8877 32.6548 18.5725 33.4858C18.2573 34.3167 17.9851 35.1907 17.7559 36.1076C17.4693 37.1391 17.2401 38.185 17.0682 39.2452C16.8676 40.3341 16.7673 41.4229 16.7673 42.5118C16.7673 43.4287 16.8533 44.3456 17.0252 45.2625C17.1111 45.6637 17.2687 46.0362 17.498 46.38C17.6985 46.7239 17.9135 46.8958 18.1427 46.8958ZM36.194 22.3967C35.8215 22.3967 35.6352 22.1818 35.6352 21.752C35.6352 21.6374 35.6639 21.4941 35.7212 21.3222C35.7785 21.1789 35.8788 21.0213 36.0221 20.8494C36.194 20.6488 36.3946 20.5485 36.6238 20.5485H45.3489C45.5781 20.5485 45.7357 20.6202 45.8217 20.7634C45.9077 20.9067 45.9506 21.05 45.9506 21.1932C45.9506 21.3079 45.922 21.4511 45.8647 21.6231C45.8074 21.7377 45.6928 21.8953 45.5208 22.0958C45.3776 22.2964 45.1913 22.3967 44.9621 22.3967H36.194ZM52.4569 33.6577C51.8265 33.6577 51.2534 33.3998 50.7376 32.884C50.2505 32.3683 49.8923 31.5803 49.6631 30.5201C49.5485 30.033 49.4625 29.4169 49.4052 28.6719C49.3766 27.9269 49.3622 27.1389 49.3622 26.308C49.3622 25.0472 49.4052 23.7434 49.4912 22.3967C49.6058 21.05 49.7491 19.8179 49.921 18.7004C50.0929 17.5542 50.2935 16.6803 50.5227 16.0785C50.666 15.7347 50.9239 15.4338 51.2964 15.1759C51.6975 14.918 52.2133 14.7891 52.8437 14.7891C53.2735 14.7891 53.7033 14.8464 54.1331 14.961C54.0472 15.2762 53.8752 16.0212 53.6174 17.196C53.3881 18.3708 53.1875 19.6746 53.0156 21.1073C52.901 22.1102 52.8007 23.1417 52.7148 24.2019C52.6288 25.2334 52.5858 26.2077 52.5858 27.1246C52.5858 28.2994 52.6861 29.288 52.8867 30.0903C53.0873 30.8639 53.4168 31.2508 53.8752 31.2508C54.4197 31.2508 54.8925 30.9356 55.2936 30.3052C55.7234 29.6461 56.0959 28.8295 56.4111 27.8553C56.7263 26.881 56.9699 25.9068 57.1418 24.9326C57.3997 23.4999 57.6289 21.9669 57.8295 20.3336C58.0301 18.6717 58.2593 17.2533 58.5172 16.0785C58.6031 15.7347 58.8467 15.4338 59.2478 15.1759C59.6777 14.918 60.2078 14.7891 60.8381 14.7891C61.2679 14.7891 61.6978 14.8464 62.1276 14.961C61.8983 15.5914 61.6691 16.537 61.4399 17.7978C61.2393 19.0585 61.0674 20.4482 60.9241 21.9669C60.7808 23.4856 60.7092 24.9899 60.7092 26.4799C60.7092 27.2249 60.7379 28.0415 60.7952 28.9298C60.8811 29.8181 61.0387 30.5774 61.2679 31.2078C61.5258 31.8382 61.884 32.1534 62.3425 32.1534H62.3855C62.6147 32.1534 62.8582 32.0388 63.1161 31.8095C63.4027 31.5803 63.7035 31.1505 64.0187 30.5201C64.248 30.1189 64.4485 29.6461 64.6205 29.1017C64.7924 28.5573 64.9786 27.9699 65.1792 27.3395C65.2938 27.0816 65.4084 26.9527 65.5231 26.9527C65.6663 26.9527 65.738 27.1246 65.738 27.4685V27.6404C65.6807 28.3854 65.4801 29.2307 65.1362 30.1762C64.7924 31.1218 64.3053 31.9385 63.6749 32.6262C63.0731 33.3139 62.3425 33.6577 61.4829 33.6577C60.5086 33.6577 59.735 33.3139 59.1619 32.6262C58.5888 31.9098 58.1733 31.0502 57.9154 30.0473C57.6576 29.0158 57.5 28.0272 57.4427 27.0816C57.2421 27.8266 57.0128 28.5716 56.755 29.3166C56.4971 30.0616 56.1819 30.7207 55.8094 31.2938C54.7778 32.8697 53.6603 33.6577 52.4569 33.6577ZM73.1777 33.7007C72.2321 33.7007 71.4871 33.3998 70.9427 32.7981C70.3983 32.1677 70.0114 31.3654 69.7822 30.3912C69.5816 29.3883 69.4813 28.3137 69.4813 27.1676C69.4813 25.9355 69.553 24.732 69.6962 23.5572C69.8682 22.3537 70.0401 21.2935 70.212 20.3766C70.4126 19.4597 70.5558 18.8293 70.6418 18.4854C69.8395 18.4281 69.2091 18.2992 68.7507 18.0986C68.2922 17.898 67.9054 17.6545 67.5902 17.3679C67.4756 18.7433 67.2893 20.219 67.0314 21.795C66.8022 23.3709 66.53 24.8896 66.2148 26.3509C65.8996 27.7836 65.5557 29.0158 65.1832 30.0473C65.0686 30.4198 64.8824 30.6061 64.6245 30.6061C64.4239 30.6061 64.3236 30.4771 64.3236 30.2192C64.3236 30.1619 64.3236 30.0903 64.3236 30.0043C64.3523 29.9184 64.3809 29.8324 64.4096 29.7464C64.868 28.4284 65.2549 26.9957 65.5701 25.4484C65.8853 23.8724 66.1288 22.3537 66.3007 20.8924C66.4727 19.431 66.5586 18.2132 66.5586 17.239V16.7662C65.8423 16.451 65.3122 15.9926 64.9683 15.3908C64.6531 14.7891 64.4955 14.216 64.4955 13.6716C64.4955 13.2704 64.5672 12.9123 64.7105 12.5971C64.8824 12.2819 65.1259 12.1243 65.4411 12.1243H65.5271C65.9282 12.1243 66.2864 12.4108 66.6016 12.9839C66.9168 13.5283 67.1747 14.1444 67.3753 14.8321C67.5758 15.4911 67.6761 16.0212 67.6761 16.4224C68.02 16.6803 68.3925 16.8665 68.7936 16.9811C69.2234 17.0957 69.5816 17.153 69.8682 17.153C70.2407 17.153 70.4842 17.0957 70.5988 16.9811C70.8281 16.7519 71.1003 16.4224 71.4155 15.9926C71.7593 15.5627 72.2894 15.3478 73.0058 15.3478C73.4929 15.3478 74.0803 15.4911 74.768 15.7777C74.4241 16.494 74.1089 17.3106 73.8224 18.2276C73.5359 19.1158 73.2923 20.0614 73.0917 21.0643C73.0631 21.2935 72.9914 21.752 72.8768 22.4397C72.7622 23.1274 72.6619 23.9154 72.576 24.8036C72.49 25.6919 72.447 26.5802 72.447 27.4685C72.447 28.7292 72.576 29.8467 72.8338 30.821C73.1204 31.7665 73.6361 32.2393 74.3811 32.2393C74.8396 32.2393 75.2408 32.0531 75.5846 31.6806C75.9285 31.3081 76.2293 30.8496 76.4872 30.3052C76.7451 29.7321 76.96 29.1877 77.1319 28.6719C77.3038 28.1275 77.4328 27.6977 77.5188 27.3825C77.5761 27.1246 77.6907 26.9957 77.8626 26.9957C78.0059 26.9957 78.0775 27.1533 78.0775 27.4685V27.6834C78.0775 29.0014 77.8339 30.1189 77.3468 31.0359C76.8884 31.9241 76.2866 32.5975 75.5416 33.056C74.7966 33.4858 74.0086 33.7007 73.1777 33.7007ZM81.9075 33.6577C80.876 33.6577 80.0593 33.3282 79.4576 32.6691C78.8559 32.0101 78.4117 31.2221 78.1252 30.3052C77.8386 29.3596 77.6667 28.4857 77.6094 27.6834C77.5521 26.9097 77.5091 26.0931 77.4805 25.2334C77.4518 24.3452 77.4375 23.4139 77.4375 22.4397C77.4375 20.6631 77.4805 18.8293 77.5664 16.9381C77.681 15.047 77.8386 13.2131 78.0392 11.4366C78.2685 9.63141 78.5407 8.02679 78.8559 6.62275C79.0278 5.9064 79.3 5.08976 79.6725 4.17284C80.045 3.25591 80.5321 2.46793 81.1338 1.80889C81.7356 1.12119 82.4519 0.777344 83.2829 0.777344C84.9735 0.777344 85.8188 2.05245 85.8188 4.60264C85.8188 5.60553 85.6468 7.05255 85.303 8.94371C84.9878 10.8062 84.4004 12.8979 83.5408 15.2189C83.111 16.4224 82.5952 17.6402 81.9935 18.8723C81.4204 20.0757 80.8473 21.1789 80.2742 22.1818C80.2456 22.411 80.2312 22.6546 80.2312 22.9125C80.2312 23.1417 80.2312 23.3709 80.2312 23.6002C80.2312 24.5744 80.2599 25.563 80.3172 26.5659C80.4032 27.5687 80.5321 28.5 80.704 29.3596C80.9046 30.1906 81.1768 30.8639 81.5207 31.3797C81.8645 31.8955 82.3087 32.1534 82.8531 32.1534C83.4835 32.1534 83.9849 31.8955 84.3574 31.3797C84.7586 30.8353 85.0594 30.3195 85.26 29.8324C85.3746 29.5745 85.4749 29.288 85.5609 28.9728C85.6755 28.6576 85.7901 28.3281 85.9047 27.9842C86.0193 27.669 86.1769 27.5114 86.3775 27.5114C86.5208 27.5114 86.5924 27.669 86.5924 27.9842V28.0702C86.5924 28.2708 86.5494 28.5286 86.4635 28.8438C86.4062 29.159 86.3202 29.4742 86.2056 29.7894C85.8617 30.8496 85.3603 31.7665 84.7013 32.5402C84.0422 33.2852 83.111 33.6577 81.9075 33.6577ZM80.3172 20.3336C81.0622 18.815 81.7499 17.2103 82.3803 15.5198C83.0107 13.8005 83.5121 12.11 83.8846 10.448C84.2858 8.78612 84.4864 7.28179 84.4864 5.93505C84.4864 5.10409 84.4147 4.41639 84.2714 3.87197C84.1568 3.32755 83.9276 3.05533 83.5838 3.05533C83.2686 3.05533 82.9677 3.38485 82.6812 4.04389C82.4233 4.67428 82.1797 5.51957 81.9505 6.57976C81.7212 7.63996 81.5063 8.78612 81.3058 10.0182C81.1338 11.2217 80.9762 12.4251 80.833 13.6286C80.7184 14.8034 80.6181 15.8493 80.5321 16.7662C80.4748 17.6545 80.4318 18.2992 80.4032 18.7004C80.4032 18.8723 80.3888 19.1015 80.3602 19.388C80.3602 19.6459 80.3459 19.9611 80.3172 20.3336Z" fill="#EE6123"/>
</g>
<defs>
<clipPath id="clip0_1466_3592">
<rect width="87" height="50" fill="white"/>
</clipPath>
</defs>
</svg>
